<?xml version="1.0" encoding="UTF-8" standalone="no"?>
<svg
   xmlns:dc="http://purl.org/dc/elements/1.1/"
   xmlns:cc="http://creativecommons.org/ns#"
   xmlns:rdf="http://www.w3.org/1999/02/22-rdf-syntax-ns#"
   xmlns:svg="http://www.w3.org/2000/svg"
   xmlns="http://www.w3.org/2000/svg"
   xmlns:sodipodi="http://sodipodi.sourceforge.net/DTD/sodipodi-0.dtd"
   xmlns:inkscape="http://www.inkscape.org/namespaces/inkscape"
   version="1.1"
   id="svg2"
   xml:space="preserve"
   width="1139.536"
   height="1139.536"
   viewBox="0 0 1139.536 1139.536"
   sodipodi:docname="news.ai"><metadata
     id="metadata8"><rdf:RDF><cc:Work
         rdf:about=""><dc:format>image/svg+xml</dc:format><dc:type
           rdf:resource="http://purl.org/dc/dcmitype/StillImage" /></cc:Work></rdf:RDF></metadata><defs
     id="defs6"><clipPath
       clipPathUnits="userSpaceOnUse"
       id="clipPath18"><path
         d="M 0,854.652 H 854.652 V 0 H 0 Z"
         id="path16" /></clipPath></defs><sodipodi:namedview
     pagecolor="#ffffff"
     bordercolor="#666666"
     borderopacity="1"
     objecttolerance="10"
     gridtolerance="10"
     guidetolerance="10"
     inkscape:pageopacity="0"
     inkscape:pageshadow="2"
     inkscape:window-width="640"
     inkscape:window-height="480"
     id="namedview4" /><g
     id="g10"
     inkscape:groupmode="layer"
     inkscape:label="news"
     transform="matrix(1.3333333,0,0,-1.3333333,0,1139.536)"><g
       id="g12"><g
         id="g14"
         clip-path="url(#clipPath18)"><g
           id="g20"
           transform="translate(588.1257,195.6471)"><path
             d="m 0,0 c 10.017,-12.626 2.858,-22.405 -2.776,-32.164 -3.945,-6.83 -8.546,-13.16 -12.855,-19.714 14.736,7.474 26.683,20.415 44.478,23.52 -4.548,-11.482 -13.136,-16.933 -19.621,-24.869 3.533,-0.191 5.931,1.58 8.538,2.934 12.038,6.256 24.251,12.092 37.299,15.718 2.001,0.556 4.654,1.725 5.855,-0.739 1.266,-2.598 -1.396,-4.2 -2.928,-5.459 -6.542,-5.376 -13.259,-10.496 -19.967,-15.751 1.825,-2.135 3.29,-2.001 4.934,-1.544 11.21,3.12 22.403,6.307 33.676,9.184 9.29,2.37 18.791,0.634 28.245,-0.856 0.6,-2.338 1.199,-4.677 1.8,-7.015 -6.621,-7.123 -13.733,-13.457 -22.544,-17.162 -12.755,-5.364 -25.481,-10.808 -38.029,-16.136 8.361,-0.646 17.024,-1.36 25.688,-1.967 4.183,-0.292 6.881,-2.503 7.93,-7.163 -58.747,-15.066 -117.51,-30.075 -176.212,-45.313 -4.517,-1.173 -6.283,-0.836 -7.721,4.989 -8.437,34.181 -17.342,68.247 -26.088,102.353 10.818,-2.908 15.837,-13.236 21.62,-22.178 4.797,-7.418 8.514,-15.672 13.815,-25.633 -0.213,5.995 -0.389,9.502 -0.453,13.004 -0.324,17.503 -2.047,35.465 10.092,48.955 -0.404,0.279 -0.808,0.56 -1.213,0.839 2.574,0.659 5.146,1.319 7.718,1.98 -0.126,-0.254 -0.287,-0.494 -0.367,-0.767 -0.059,-0.198 -0.033,-0.634 -0.007,-0.639 11.452,-2.449 14.284,-11.852 14.998,-22.701 0.431,-6.542 0.375,-13.091 0.54,-19.637 0.085,-0.724 -0.03,-1.892 0.291,-2.089 0.837,-0.513 1.176,0.29 1.261,1.151 11.436,21.413 23.315,42.397 42.176,56.777"
             style="fill:#7e7cf7;fill-opacity:1;fill-rule:nonzero;stroke:none"
             id="path22" /></g><g
           id="g24"
           transform="translate(378.0412,708.1642)"><path
             d="m 0,0 c -6.242,0.255 -11.639,5.354 -18.302,3.192 -2.727,-1.129 -4.152,0.351 -5.199,2.584 -0.858,2.722 -2.506,3.335 -5.438,3.072 -6.812,-0.612 -13.672,0.264 -19.371,-0.015 7.263,-1.373 16.12,2.122 24.269,-2.212 0.248,-3.202 3.464,-4.382 4.717,-6.901 -1.548,-5.851 -3.095,-11.702 -4.642,-17.553 -0.758,-0.661 -1.631,-1.079 -2.616,-1.265 -3.977,-0.28 -7.531,0.833 -10.664,3.282 -2.322,4.224 -6.306,4.797 -10.582,4.735 -5,1.631 -9.487,3.865 -11.087,9.467 -26.486,28.752 -31.161,63.046 -25.405,99.99 7.437,0.351 13.735,-4.628 21.121,-4.519 3.278,-0.704 6.554,-1.415 8.97,-4.036 -0.516,-0.762 -1.529,-0.465 -2.148,-1.008 1.648,0.406 3.195,-1.125 4.869,-0.258 14.5,-6.333 26.298,-16.101 36.109,-28.396 4.41,-1.085 7.336,-4.083 9.454,-7.824 C 1.626,38.964 5.574,24.664 4.561,9.193 4.322,5.539 3.775,1.943 0,0"
             style="fill:#cdd2f7;fill-opacity:1;fill-rule:nonzero;stroke:none"
             id="path26" /></g><g
           id="g28"
           transform="translate(378.0412,708.1642)"><path
             d="m 0,0 c 4.964,22.649 -1.129,42.464 -15.409,60.169 4.601,1.937 4.346,6.893 6.364,10.414 5.409,9.435 11.593,18.273 18.83,26.39 1.987,2.228 3.557,3.875 6.253,0.495 C 30.504,79.33 40.425,59.595 38.667,35.556 36.321,26.813 33.778,18.13 30.977,9.522 26.174,2.407 23.08,-6.95 11.571,-5.258 c -1.026,1.249 -3.641,1.103 -3.198,3.642 2.704,18.513 1.208,37.179 1.942,55.765 0.329,8.302 0.382,16.603 0.986,24.87 C 10.043,59.283 10.412,39.498 9.729,19.749 9.469,12.213 11.859,4.092 6.562,-2.813 4.653,-2.666 2.776,-2.45 1.449,-0.822 0.898,-0.668 0.415,-0.394 0,0"
             style="fill:#7f7cfa;fill-opacity:1;fill-rule:nonzero;stroke:none"
             id="path30" /></g><g
           id="g32"
           transform="translate(340.1017,694.8581)"><path
             d="m 0,0 c 3.996,-1.389 7.991,-2.778 11.986,-4.168 1.272,-6.741 -1.389,-12.357 -5.058,-17.685 -6.162,-4.588 -13.099,-5.73 -20.543,-4.62 -7.553,2.044 -15.06,4.243 -22.505,6.651 -6.563,2.909 -15.891,5.935 -16.334,12.29 -0.419,6.013 8.898,9.572 14.943,12.704 5.232,2.712 11.002,4.384 16.535,6.518 C -16.275,9.927 -13.32,5.216 -8.217,4.13 -4.685,4.332 -2.323,2.204 0,0"
             style="fill:#5652cb;fill-opacity:1;fill-rule:nonzero;stroke:none"
             id="path34" /></g><g
           id="g36"
           transform="translate(409.0177,717.6862)"><path
             d="M 0,0 C 0.045,9.422 2.581,18.108 7.691,26.034 7.913,16.533 5.477,7.817 0,0"
             style="fill:#8380fe;fill-opacity:1;fill-rule:nonzero;stroke:none"
             id="path38" /></g><g
           id="g40"
           transform="translate(303.9816,675.0363)"><path
             d="M 0,0 C 8.235,0.265 15.745,-1.923 22.505,-6.651 14.256,-6.962 6.857,-4.398 0,0"
             style="fill:#5a55d5;fill-opacity:1;fill-rule:nonzero;stroke:none"
             id="path42" /></g><g
           id="g44"
           transform="translate(314.8419,802.0217)"><path
             d="M 0,0 C -7.637,-1.28 -14.027,3.263 -21.121,4.519 -13.112,7.542 -6.916,2.091 0,0"
             style="fill:#d8ddfe;fill-opacity:1;fill-rule:nonzero;stroke:none"
             id="path46" /></g><g
           id="g48"
           transform="translate(355.3185,714.5705)"><path
             d="M 0,0 4.421,-3.214 C 4.08,-4.371 3.739,-5.529 3.398,-6.687 1.816,-4.55 -4.84,-7.685 -2.267,-1.232 -1.623,-0.616 -1.111,0.244 0,0"
             style="fill:#dce1f7;fill-opacity:1;fill-rule:nonzero;stroke:none"
             id="path50" /></g><g
           id="g52"
           transform="translate(347.0299,673.0051)"><path
             d="M 0,0 C 1.686,5.895 3.372,11.791 5.058,17.686 5.72,17.566 6.382,17.447 7.044,17.327 7.045,17.326 6.909,17.506 6.909,17.506 6.729,11.825 4.985,6.594 2.327,1.627 1.551,1.085 0.776,0.542 0,0"
             style="fill:#4944c6;fill-opacity:1;fill-rule:nonzero;stroke:none"
             id="path54" /></g><g
           id="g56"
           transform="translate(349.3566,674.6325)"><path
             d="M 0,0 4.582,15.879 C 5.862,9.776 4.179,4.528 0,0"
             style="fill:#9d9be0;fill-opacity:1;fill-rule:nonzero;stroke:none"
             id="path58" /></g><g
           id="g60"
           transform="translate(379.4899,707.342)"><path
             d="m 0,0 c 1.83,-0.482 3.66,-0.964 5.49,-1.445 0.826,0.644 1.371,0.423 1.675,-0.544 0.986,-0.816 1.972,-1.632 2.958,-2.447 C 6.662,-3.155 2.132,-4.313 0,0"
             style="fill:#9897f7;fill-opacity:1;fill-rule:nonzero;stroke:none"
             id="path62" /></g><g
           id="g64"
           transform="translate(326.5329,796.7194)"><path
             d="M 0,0 C -2.604,-1.214 -4.933,-0.963 -7.528,1.742 -5.474,1.539 -4.097,1.402 -2.721,1.266 -1.814,0.844 -0.907,0.422 0,0"
             style="fill:#d6dbfd;fill-opacity:1;fill-rule:nonzero;stroke:none"
             id="path66" /></g><g
           id="g68"
           transform="translate(355.3185,714.5705)"><path
             d="m 0,0 c -0.756,-0.411 -1.511,-0.822 -2.267,-1.232 -6.29,3.661 -13.262,1.688 -19.909,2.393 -3.501,0.37 -7.231,-1.024 -10.886,1.657 9.246,3.761 20.467,-3.922 29.067,4.936 C -2.026,6.243 -0.886,3.196 0,0"
             style="fill:#d6dbf7;fill-opacity:1;fill-rule:nonzero;stroke:none"
             id="path70" /></g><g
           id="g72"
           transform="translate(342.007,733.6213)"><path
             d="M 0,0 C -2.149,2.082 -4.682,3.847 -5.684,6.877 6.026,8.65 1.788,22.105 9.348,26.67 8.609,17.203 1.397,9.584 0.008,0.005 Z"
             style="fill:#d6dbf7;fill-opacity:1;fill-rule:nonzero;stroke:none"
             id="path74" /></g><g
           id="g76"
           transform="translate(305.0924,755.6476)"><path
             d="M 0,0 C 10.605,-3.594 20.867,-0.218 27.892,-8.338 20.114,-2.893 9.583,-7.227 0,0"
             style="fill:#d6dbf7;fill-opacity:1;fill-rule:nonzero;stroke:none"
             id="path78" /></g><g
           id="g80"
           transform="translate(310.4987,780.7746)"><path
             d="M 0,0 C 3.932,-1.101 4.027,2.801 5.882,4.915 4.524,-1.394 4.974,-7.049 7.136,-12.97 4.585,-9.227 2.035,-5.484 -0.516,-1.741 -0.947,-1.192 -1.014,-0.752 -0.718,-0.418 -0.422,-0.085 -0.184,0.054 0,0"
             style="fill:#d6dbf7;fill-opacity:1;fill-rule:nonzero;stroke:none"
             id="path82" /></g><g
           id="g84"
           transform="translate(310.4987,780.7746)"><path
             d="M 0,0 C -0.172,-0.58 -0.344,-1.161 -0.516,-1.741 -4.018,2.377 -6.245,7.195 -7.612,12.563 -3.993,9.09 -1.517,4.865 0,0"
             style="fill:#d6dbf7;fill-opacity:1;fill-rule:nonzero;stroke:none"
             id="path86" /></g><g
           id="g88"
           transform="translate(340.1017,694.8581)"><path
             d="M 0,0 C -3.564,-0.265 -5.568,2.574 -8.217,4.13 -4.684,4.333 0.046,6.917 0,0"
             style="fill:#d3d9f9;fill-opacity:1;fill-rule:nonzero;stroke:none"
             id="path90" /></g><g
           id="g92"
           transform="translate(342.0153,733.6266)"><path
             d="m 0,0 c 2.46,-1.136 4.543,-2.548 4.304,-5.96 -3.398,0.756 -3.503,3.613 -4.312,5.955 z"
             style="fill:#d7dcf7;fill-opacity:1;fill-rule:nonzero;stroke:none"
             id="path94" /></g><g
           id="g96"
           transform="translate(321.8229,763.2497)"><path
             d="M 0,0 C 2.795,-0.621 3.355,-2.363 3.542,-5.155 0.861,-4.127 0.046,-2.564 0,0"
             style="fill:#d7dcf7;fill-opacity:1;fill-rule:nonzero;stroke:none"
             id="path98" /></g><g
           id="g100"
           transform="translate(386.6549,705.3532)"><path
             d="m 0,0 c -0.566,0.159 -1.125,0.34 -1.676,0.542 3.039,19.405 1.171,38.989 2.097,58.474 0.466,9.811 0.357,19.643 2.036,30.52 C 5.73,86.082 3.726,83.137 3.688,80.625 3.34,57.19 2.806,33.757 2.195,10.328 2.104,6.812 2.629,3.033 0,0"
             style="fill:#7470f0;fill-opacity:1;fill-rule:nonzero;stroke:none"
             id="path102" /></g><g
           id="g104"
           transform="translate(197.8625,660.3386)"><path
             d="m 0,0 c 1.956,-1.105 8.068,-6.025 10.024,-7.13 0.798,-1.667 1.126,-3.617 3.234,-5.176 0.13,2.001 1.112,3.583 -0.679,4.987 -0.294,0.186 -0.588,0.371 -0.883,0.557 l 0.089,0.143 c 0.755,1.411 -0.431,1.957 -1.198,2.69 C 8.743,-1.081 5.98,-0.18 2.764,-0.241 1.843,-0.161 0.921,-0.081 0,0 -0.473,0.846 -1.29,0.994 -2.136,0.987 -7.084,0.95 -7.276,2.777 -4.168,6.018 -3.789,6.414 -3.73,7.119 -3.41,7.987 -13.249,2.941 -13.249,2.941 -15.436,7.71 -17.273,6.02 -19.727,5.223 -21.157,3.08 -21.984,2.663 -22.812,2.246 -23.64,1.829 -28.009,3.281 -23.909,6.439 -24.959,8.912 -27.501,5.417 -31.455,4.033 -34.081,1.043 -34.597,0.695 -35.114,0.348 -35.63,0 c -0.805,0.184 -1.487,0.149 -1.603,-0.897 -0.795,-0.442 -1.59,-0.884 -2.385,-1.326 -0.927,0.526 -1.147,-0.107 -1.325,-0.809 -5.222,-3.347 -11.809,-4.899 -14.754,-11.235 -2.413,-3.33 -1.751,-6.298 1.057,-9.016 0.309,-0.978 0.619,-1.955 0.928,-2.933 -0.949,-0.127 -1.293,-0.763 -1.365,-1.626 -0.172,-0.478 -0.343,-0.955 -0.515,-1.433 -1.602,-1.226 -1.641,-3.95 -0.766,-4.224 3.362,-1.053 3.161,-4.817 5.601,-6.364 2.048,-2.826 3.571,-6.169 7.265,-7.374 -0.103,-9.038 1.734,-11.998 10.485,-13.253 5.469,-0.784 6.379,-3.802 6.442,-8.067 0.137,-9.228 1.174,-18.571 -3.034,-27.322 -9.996,-1.482 -19.767,-4.038 -29.358,-7.075 -7.193,-2.278 -11.198,-7.841 -12.554,-15.366 -0.889,-4.935 -1.061,-9.894 -1.254,-14.869 -1.738,0.504 -3.276,0.099 -4.687,-0.989 -15.428,-11.893 -31.278,-23.362 -44.084,-38.208 -9.506,-11.02 -15.055,-24.119 -18.161,-38.332 -2.554,-11.685 -1.586,-23.496 -1.872,-35.273 -0.446,-18.314 3.566,-36.029 8.304,-53.42 5.168,-18.962 13.672,-36.696 23.859,-53.607 16.28,-27.022 37.382,-49.651 62.009,-69.135 2.509,-1.985 4.904,-4.799 8.813,-3.559 -0.213,-1.809 -0.291,-3.644 -0.659,-5.421 -5.351,-25.812 -12.047,-51.291 -18.967,-76.717 -3.478,-12.775 -7.738,-25.336 -10.492,-38.308 -4.297,-1.268 -7.17,-5.778 -6.214,-10.639 0.799,-4.059 4.434,-1.344 6.621,-2.214 0.305,-0.121 0.646,-0.15 0.97,-0.222 -0.029,-7.09 -4.528,-12.722 -6.274,-19.252 -1.698,-0.266 -3.144,-0.931 -4.008,-2.522 -8.677,0.58 -17.038,-2.395 -25.742,-2.121 -6.604,0.208 -13.276,-0.319 -19.856,-1.066 -15.591,-1.771 -31.168,-3.711 -46.704,-5.918 -5.187,-0.737 -10.274,-2.345 -15.317,-3.856 -1.854,-0.555 -3.852,-1.973 -3.866,-4.124 -0.014,-2.048 2.11,-2.961 3.822,-3.461 4.444,-1.298 8.933,-2.477 13.459,-3.448 17.008,-3.649 34.373,-5.259 51.601,-6.637 19.959,-1.596 39.94,-3.678 59.962,-4.227 21.072,-0.577 42.065,-2.619 63.116,-3.012 21.264,-0.396 42.51,-0.735 63.747,-2.05 13.928,-0.862 27.947,-0.786 41.868,-0.806 91.788,-0.134 183.584,-1.281 275.364,0.835 3.792,0.087 7.634,-0.716 11.312,-0.005 10.525,2.037 21.212,1.114 31.773,1.58 20.894,0.921 41.866,0.474 62.724,2.386 12.573,1.153 25.177,0.791 37.765,1.739 20.793,1.566 41.59,2.83 62.36,4.92 17.286,1.739 34.502,3.45 51.425,7.424 3.1,0.728 7.756,0.902 7.647,4.901 -0.101,3.673 -4.468,4.151 -7.727,4.966 -12.373,3.092 -24.902,5.085 -37.612,6.19 -12.016,1.046 -23.972,3.093 -36.001,3.626 -13.752,0.61 -27.388,2.712 -41.112,3 -20.248,0.425 -40.415,1.996 -60.616,3.122 -11.444,0.639 -22.939,0.543 -34.375,0.711 -24.216,0.357 -48.384,1.633 -72.577,2.302 -24.286,0.673 -48.583,0.299 -72.877,0.683 -39.435,0.624 -78.905,1.136 -118.372,-0.49 -27.072,-1.115 -54.224,0.598 -81.308,-0.79 -7.079,-0.363 -14.191,0.159 -21.305,-1.085 -4.583,-0.802 -10.541,-2.261 -13.997,0.8 -4.304,3.811 -6.004,1.698 -8.516,-1.083 -0.417,5.792 1.973,11.091 2.922,16.642 2.116,0.137 4.243,0.483 6.345,0.366 4.142,-0.23 6.964,0.585 5.771,5.69 -0.139,0.594 -0.072,1.417 0.248,1.907 2.888,4.425 -0.469,4.408 -3.327,4.766 3.667,12.041 7.437,24.052 10.974,36.132 3.487,11.914 6.738,23.897 10.093,35.851 1.412,-0.448 2.802,-1.175 4.242,-1.297 10.049,-0.846 19.878,0.578 29.514,3.353 15.861,4.569 29.842,12.913 43.171,22.319 14.686,10.363 29.112,21.103 44.396,30.585 18.522,11.493 38.474,19.43 59.871,23.78 14.308,2.908 28.778,4.47 43.256,6.145 4.989,0.576 10.105,-0.159 14.886,1.037 11.801,2.954 23.988,2.301 35.89,4.533 10.096,1.893 20.411,3.123 30.254,5.867 19.26,5.37 37.363,13.531 54.581,23.976 18.193,11.036 33.929,24.825 47.726,40.652 27.355,31.381 42.753,68.111 46.068,109.725 0.259,3.245 0.904,6.662 -0.832,9.802 0.992,-0.003 2.005,0.131 2.97,-0.03 12.797,-2.138 25.574,-4.386 38.381,-6.463 8.706,-1.411 17.434,-2.714 26.182,-3.85 8.97,-1.166 17.107,1.451 18.68,14.628 2.03,16.994 4.724,33.915 7.411,50.823 1.678,10.551 -2.001,16.229 -12.577,17.962 -9.844,1.613 -19.563,4.05 -29.579,4.551 4.568,0.846 9.125,1.763 13.708,2.524 9.2,1.529 15.494,9.239 14.443,18.481 -1.238,10.902 -2.931,21.752 -4.405,32.628 -3.194,23.565 -6.369,47.133 -9.564,70.698 -0.403,2.967 -0.761,5.947 -1.352,8.879 -2.202,10.918 -10.57,15.653 -23.212,13.679 -12.475,-1.948 -25.011,-3.517 -37.52,-5.253 -5.516,21.211 -10.823,42.48 -16.644,63.607 -2.471,8.971 -9.646,12.322 -18.75,9.88 -37.049,-9.936 -74.1,-19.865 -111.151,-29.797 -0.236,3.919 -3.751,4.303 -6.255,5.632 -26.49,14.054 -54.772,20.889 -84.735,20.528 C 285.113,94.823 275.77,94.959 266.262,93.38 252.943,91.167 239.72,88.799 227.136,84.076 200.983,74.261 176.804,60.506 154.035,44.482 124.5,23.697 95.773,1.798 67.482,-20.666 52.241,-32.769 36.772,-44.586 21.383,-56.503 12.84,-63.118 4.25,-69.671 -4.318,-76.252 c -0.633,0.123 -1.266,0.246 -1.899,0.37 0.009,0.5 0.019,1 0.029,1.5 1.88,2.397 2.734,5.22 5.799,7.139 9.651,6.044 14.092,14.788 12.12,26.596 -0.655,3.923 -1.904,7.703 -2.315,11.653 -0.916,5.159 0.577,11.259 -5.611,14.359 l 1.748,-1.76"
             style="fill:#fefefe;fill-opacity:1;fill-rule:nonzero;stroke:none"
             id="path106" /></g><g
           id="g108"
           transform="translate(726.3688,466.1667)"><path
             d="m 0,0 c 1.736,-3.138 1.092,-6.555 0.833,-9.8 -3.315,-41.614 -18.713,-78.345 -46.068,-109.725 -13.797,-15.828 -29.534,-29.616 -47.726,-40.652 -17.219,-10.445 -35.321,-18.606 -54.581,-23.976 -9.844,-2.744 -20.158,-3.974 -30.255,-5.868 -11.901,-2.231 -24.089,-1.578 -35.89,-4.532 -4.781,-1.196 -9.896,-0.461 -14.885,-1.037 -14.479,-1.675 -28.949,-3.237 -43.256,-6.145 -21.398,-4.35 -41.35,-12.287 -59.872,-23.78 -15.283,-9.482 -29.709,-20.222 -44.396,-30.586 -13.329,-9.405 -27.31,-17.75 -43.17,-22.318 -9.636,-2.775 -19.465,-4.199 -29.515,-3.353 -1.44,0.122 -2.829,0.849 -4.241,1.295 0.033,1.99 -0.323,4.079 0.157,5.955 4.07,15.904 7.019,32.012 9.093,48.288 1.673,13.122 1.36,26.333 -0.816,39.256 -1.973,11.719 -4.691,23.37 -7.165,35.024 -5.738,27.021 -14.27,53.192 -22.311,79.535 -1.532,5.02 -4.598,9.666 -4.219,15.227 2.964,3.46 6.082,2.693 9.06,0.147 2.598,-2.221 5.519,-3.239 8.856,-3.949 4.231,-0.9 8.912,-1.252 11.905,-5.186 0.162,-10.273 3.354,-20.299 2.464,-30.669 -0.198,-2.31 -0.141,-4.67 0.062,-6.984 0.846,-9.656 8.844,-17.911 17.253,-16.518 6.018,0.998 12.169,1.581 18.082,3.168 7.366,1.977 13.621,9.975 12.025,16.881 -1.305,5.645 -1.123,11.187 -1.566,16.781 -0.565,7.136 -0.185,7.748 7.169,9.916 2.648,0.253 3.559,2.123 3.963,4.373 1.744,9.712 1.056,19.488 0.499,29.233 -0.136,2.384 -0.979,5.065 -4.417,4.949 -8.486,0.245 -8.949,0.785 -7.949,9.467 0.07,0.613 0.42,1.193 0.641,1.788 0.463,1.466 0.927,2.933 1.39,4.4 1.835,1.706 3.715,3.369 6.389,3.496 11.537,0.55 23.04,2.081 34.502,2.693 18.16,0.97 36.395,2.126 54.635,1.411 1.484,-0.058 2.977,0.101 4.464,0.159 2.886,-0.001 5.775,-0.002 8.664,-0.003 7.972,-0.116 15.991,0.268 23.907,-0.46 13.441,-1.236 26.854,-0.651 40.285,-0.451 3.841,1.033 3.488,4.396 3.897,7.231 0.772,5.342 -1.086,10.569 -0.92,15.878 0.376,12.181 -2.028,24.082 -3.564,36.06 -1.388,10.815 -3.61,21.529 -5.163,32.299 -1.513,10.494 -3.047,20.983 -5.082,31.373 -2.705,13.812 -6.109,27.485 -8.887,41.284 -2.986,14.835 -7.084,29.328 -12.424,43.47 -0.996,2.639 -1.645,6.037 -5.852,5.291 -1.116,-0.246 -2.293,-0.339 -3.34,-0.758 -18.694,-7.486 -37.372,-15.012 -56.054,-22.528 -2.81,-1.052 -5.621,-2.104 -8.432,-3.156 -19.652,-7.682 -39.733,-14.112 -59.873,-20.346 -17.443,-5.398 -35.1,-10.044 -52.939,-13.956 -14.409,-3.16 -28.862,-6.118 -43.264,-9.307 -7.029,-1.557 -12.67,-5.179 -17.324,-10.936 -3.94,-4.875 -4.14,-10.73 -6.035,-16.136 -2.892,-1.604 -6.133,-0.89 -9.194,-1.379 -4.445,1.732 -8.992,3.265 -12.081,7.285 -2.229,2.901 -3.156,5.766 -0.294,8.8 8.569,6.582 17.159,13.135 25.701,19.75 15.39,11.916 30.858,23.734 46.1,35.837 28.291,22.464 57.018,44.363 86.552,65.148 22.769,16.024 46.949,29.779 73.102,39.594 12.584,4.723 25.806,7.09 39.126,9.304 9.508,1.579 18.85,1.443 28.275,1.556 29.963,0.362 58.245,-6.473 84.736,-20.527 2.504,-1.329 6.018,-1.713 6.254,-5.631 -1.37,-1.692 -3.434,-1.961 -5.327,-2.471 -19.85,-5.344 -39.722,-10.609 -59.569,-15.965 -8.832,-2.383 -12.8,-9.873 -10.162,-18.469 2.432,-7.924 5.072,-15.824 6.833,-23.906 4.768,-21.892 11.474,-43.264 16.998,-64.95 2.188,-8.591 5.88,-11.224 14.781,-12.108 3.853,-3.924 3.475,-9.459 3.986,-14.03 1.638,-14.661 4.582,-29.15 5.541,-43.9 0.669,-10.278 8.554,-18.202 17.284,-16.899 7.847,1.172 15.851,1.078 23.6,3.442 4.774,1.456 9.405,0.627 13.844,-3.148 8.221,-6.992 17.204,-13.09 25.899,-19.524 1.14,-0.844 2.224,-2.536 3.852,-1.636 1.824,1.009 1.059,2.876 0.809,4.511 -1.028,6.706 -1.919,13.434 -3.036,20.124 -0.627,3.76 0.724,5.599 4.509,6.142 9.186,1.319 18.56,1.177 27.598,3.774 2.241,0.643 5.906,4.601 7.463,1.751 0.505,3.06 -4.198,-25.479 -6.635,-38.845 -1.847,-9.982 0.148,-15.384 7.689,-18.094 2.307,-0.83 4.805,-1.352 7.251,-1.527 4.524,-0.326 8.212,-1.945 11.481,-5.181 2.882,-2.853 4.52,-6.558 7.295,-9.439 4.376,-4.544 5.149,-4.377 7.138,1.752 C -11.373,2.011 -5.908,4.238 0,0"
             style="fill:#fbb907;fill-opacity:1;fill-rule:nonzero;stroke:none"
             id="path110" /></g><g
           id="g112"
           transform="translate(746.5456,591.5978)"><path
             d="m 0,0 c 5.267,-0.337 10.089,0.93 14.535,3.348 5.373,2.923 7.632,7.774 7.224,13.746 -0.389,5.671 -3.824,9.014 -9.966,11.006 -4.049,1.314 -8.233,1.087 -12.3,1.858 -1.908,0.361 -5.117,0.218 -4.543,3.337 0.565,3.066 3.567,3.149 6.083,2.747 1.213,-0.193 2.621,-0.966 3.375,-1.923 3.747,-4.751 7.658,-0.034 11.456,-0.339 1.133,-0.092 1.943,0.74 1.698,1.935 -0.673,3.308 -2.749,5.624 -5.598,7.274 -0.853,0.494 -1.822,0.788 -2.744,1.158 -5.312,2.134 -10.555,0.73 -15.687,-0.59 -7.047,-1.814 -11.569,-7.209 -11.291,-12.866 0.308,-6.246 4.928,-10.524 12.745,-11.81 3.604,-0.593 7.24,-1.048 10.79,-1.872 C 7.338,16.647 8.886,15.674 8.936,13.608 8.982,11.653 7.716,10.568 6.235,9.731 3.473,8.167 -0.194,7.986 -1.47,10.532 -4.492,16.562 -8.796,13.89 -12.967,13.314 -16.219,12.865 -16.786,11.166 -15.413,8.43 -12.19,2.004 -6.931,-0.669 0,0 m -79.297,-7.246 c -0.201,5.795 -0.905,6.388 -6.224,5.579 -4.437,-0.674 -8.956,-1.011 -13.291,-2.09 -3.495,-0.869 -3.927,0.99 -4.425,3.466 -0.541,2.69 -0.193,4.542 3.115,4.838 4.302,0.386 8.575,1.088 12.874,1.531 3.415,0.352 4.026,2.294 3.399,5.241 -0.557,2.625 -1.041,4.8 -4.762,3.969 -4.201,-0.937 -8.532,-1.299 -12.814,-1.857 -2.15,-0.281 -3.907,-0.157 -4.07,2.824 -0.144,2.626 0.93,3.537 3.351,3.809 4.624,0.521 9.209,1.494 13.842,1.797 3.802,0.249 4.275,2.065 3.809,5.269 -0.477,3.266 -1.174,4.986 -5.295,4.223 -8.647,-1.599 -17.409,-2.619 -26.153,-3.628 -3.078,-0.356 -4.583,-1.33 -4.116,-4.656 1.691,-12.013 3.307,-24.038 4.901,-36.065 0.309,-2.339 1.51,-3.097 3.759,-2.757 9.529,1.44 19.051,2.934 28.606,4.177 3.074,0.4 4.085,1.744 3.494,4.33 m -59.53,9.885 c -0.319,-0.128 -0.638,-0.256 -0.956,-0.385 -4.204,4.634 -8.598,9.113 -12.555,13.95 -3.328,4.067 -6.669,5.97 -12.338,4.689 -3.858,-0.872 -5.099,-1.882 -4.544,-5.641 1.482,-10.037 2.957,-20.079 4.141,-30.153 0.929,-7.9 0.719,-7.725 8.428,-7.12 4.255,0.334 5.36,2.021 4.596,6.086 -0.958,5.101 -1.368,10.304 -2.014,15.463 5.1,-3.808 9.708,-7.736 12.93,-12.586 4.069,-6.122 8.993,-6.078 15.049,-4.503 2.446,0.637 2.828,1.69 2.519,3.825 -1.578,10.861 -3.044,21.737 -4.643,32.595 -0.974,6.627 -1.037,6.307 -7.733,6.022 -4.94,-0.21 -5.822,-2.307 -4.991,-6.669 0.979,-5.139 1.43,-10.378 2.111,-15.573 m 88.572,15.217 c 0.327,0.113 0.653,0.225 0.981,0.337 2.929,-6.63 6,-13.205 8.718,-19.921 1.069,-2.639 2.314,-3.86 5.189,-2.995 1.097,0.33 2.308,0.47 3.455,0.42 4.577,-0.2 6.34,1.668 6.516,6.476 0.369,10.128 1.352,20.241 2.306,30.338 0.756,7.996 0.919,7.73 -7.059,7.201 -3.887,-0.258 -5.201,-1.651 -5.234,-5.427 -0.051,-5.556 -0.586,-11.107 -0.968,-17.578 -3.399,4.663 -5.034,9.228 -6.485,13.657 -1.818,5.551 -4.518,7.497 -10.462,6.321 -3.981,-0.788 -5.537,-1.943 -6.012,-6.141 -0.593,-5.256 -0.574,-10.768 -3.11,-17.125 -1.882,5.484 -3.344,9.664 -4.75,13.864 -2.393,7.145 -2.895,7.347 -10.301,5.928 -3.431,-0.657 -4.406,-1.997 -3.089,-5.409 4.191,-10.848 8.302,-21.733 12.144,-32.708 1.178,-3.365 2.826,-4.604 6.242,-3.725 1.603,0.412 3.279,0.559 4.931,0.751 2.71,0.315 3.808,1.601 4.092,4.511 0.69,7.102 1.897,14.154 2.896,21.225 m -25.461,-79.351 c -9.038,-2.596 -18.412,-2.454 -27.597,-3.773 -3.786,-0.543 -5.137,-2.382 -4.509,-6.143 1.116,-6.69 2.008,-13.417 3.035,-20.123 0.25,-1.635 1.016,-3.503 -0.809,-4.511 -1.628,-0.9 -2.712,0.792 -3.852,1.636 -8.695,6.433 -17.678,12.532 -25.899,19.524 -4.439,3.775 -9.07,4.604 -13.843,3.148 -7.749,-2.364 -15.753,-2.27 -23.601,-3.442 -8.73,-1.303 -16.615,6.62 -17.284,16.899 -0.959,14.75 -3.903,29.239 -5.541,43.9 -0.511,4.571 -0.133,10.106 -3.983,14.028 0.356,0.73 1.098,1.515 1.006,2.185 -2.018,14.733 -3.808,29.51 -6.322,44.162 -2.086,12.155 2.907,20.579 15.091,22.93 7.45,1.438 15.027,2.22 22.549,3.289 12.925,1.838 25.849,3.679 38.777,5.5 11.288,1.591 22.586,3.117 33.868,4.746 11.782,1.701 23.548,3.518 35.328,5.234 14.227,2.072 28.461,4.092 42.692,6.134 12.508,1.735 25.045,3.305 37.52,5.253 12.642,1.974 21.01,-2.762 23.212,-13.68 0.591,-2.931 0.949,-5.912 1.352,-8.879 3.195,-23.564 6.37,-47.132 9.564,-70.697 1.474,-10.876 3.167,-21.726 4.405,-32.628 C 60.494,-36.045 54.2,-43.755 45,-45.284 c -4.583,-0.761 -9.14,-1.678 -13.701,-2.525 -5.811,-0.363 -11.673,-0.38 -17.435,-1.151 -22.757,-3.043 -45.497,-6.218 -68.207,-9.593"
             style="fill:#807dfb;fill-opacity:1;fill-rule:nonzero;stroke:none"
             id="path114" /></g><g
           id="g116"
           transform="translate(240.3205,84.3376)"><path
             d="m 0,0 c 2.512,2.781 4.212,4.894 8.516,1.083 3.456,-3.061 9.414,-1.602 13.997,-0.8 7.114,1.244 14.226,0.722 21.305,1.085 27.084,1.388 54.236,-0.325 81.308,0.79 39.467,1.626 78.937,1.113 118.372,0.49 24.294,-0.384 48.591,-0.01 72.877,-0.683 24.193,-0.669 48.361,-1.945 72.577,-2.302 11.436,-0.168 22.931,-0.072 34.375,-0.711 20.201,-1.126 40.368,-2.697 60.616,-3.122 13.725,-0.288 27.36,-2.39 41.112,-3 12.029,-0.533 23.985,-2.58 36.001,-3.626 12.71,-1.105 25.239,-3.098 37.612,-6.19 3.259,-0.815 7.626,-1.293 7.727,-4.966 0.109,-3.999 -4.547,-4.173 -7.647,-4.902 -16.923,-3.973 -34.139,-5.684 -51.425,-7.423 -20.77,-2.09 -41.567,-3.354 -62.36,-4.92 -12.588,-0.948 -25.192,-0.586 -37.765,-1.739 -20.858,-1.912 -41.83,-1.465 -62.724,-2.386 -10.561,-0.466 -21.248,0.457 -31.773,-1.58 -3.678,-0.711 -7.52,0.092 -11.312,0.005 -91.78,-2.116 -183.577,-0.969 -275.364,-0.835 -13.921,0.02 -27.94,-0.056 -41.868,0.806 -21.237,1.315 -42.483,1.654 -63.747,2.05 -21.051,0.393 -42.044,2.435 -63.116,3.012 -20.023,0.549 -40.003,2.631 -59.962,4.227 -17.228,1.378 -34.593,2.988 -51.601,6.637 -4.526,0.971 -9.015,2.15 -13.459,3.448 -1.712,0.5 -3.836,1.413 -3.822,3.461 0.014,2.151 2.012,3.569 3.866,4.124 5.043,1.511 10.13,3.119 15.317,3.856 15.536,2.207 31.113,4.147 46.704,5.918 6.58,0.747 13.252,1.274 19.856,1.066 8.704,-0.274 17.065,2.701 25.742,2.121 -0.954,-3.848 -1.701,-7.765 -2.917,-11.529 -1.369,-4.236 0.266,-5.448 4.253,-5.242 12.471,0.644 24.943,0.238 37.416,-0.035 1.645,-0.036 3.366,0.047 4.931,0.498 2.201,0.634 3.881,2.198 3.97,4.595 0.092,2.459 -2.127,2.629 -3.874,3.061 -7.884,1.945 -14.733,5.829 -20.865,11.066 0.108,0.258 0.111,0.518 0.014,0.778 l 0.176,2.865 c 0.278,0.295 0.557,0.59 0.836,0.886 2.183,0.335 4.618,2.379 5.672,-1.945 0.35,-1.439 3.24,-2.855 5.408,-2.909 6.161,-0.153 12.422,-0.705 18.474,0.132 14.063,1.945 28.156,1.756 42.266,1.771 1.536,0.002 3.111,0.077 3.326,-2.054 -1.313,-4.622 -2.513,-9.281 -3.977,-13.854 -1.158,-3.615 0.106,-5.005 3.71,-4.865 16.949,0.656 33.897,0.216 50.846,-0.047 2.361,-0.036 4.654,0.276 6.463,2.067 1.105,1.096 1.954,2.301 1.645,3.952 -0.323,1.726 -1.827,1.622 -3.092,1.94 -7.874,1.985 -16.133,2.453 -23.687,5.62 C 7.132,-6.664 2.81,-5.931 -0.082,-2.542 -0.055,-1.694 -0.027,-0.848 0,0"
             style="fill:#ced3f8;fill-opacity:1;fill-rule:nonzero;stroke:none"
             id="path118" /></g><g
           id="g120"
           transform="translate(164.3048,318.9157)"><path
             d="m 0,0 c -0.208,6.633 0.125,13.464 -1.369,19.834 -2.666,11.368 -2.521,22.999 -4.193,34.45 -1.807,12.385 -3.592,24.915 -3.949,37.507 1.916,0.503 3.8,1.25 5.748,1.497 17.168,2.186 34.348,4.282 51.525,6.405 10.758,-2.246 21.514,-4.5 32.274,-6.732 1.743,-0.362 2.932,-1.374 3.744,-2.904 -0.378,-5.559 2.688,-10.205 4.22,-15.225 8.041,-26.343 16.573,-52.514 22.311,-79.535 2.474,-11.654 5.192,-23.305 7.165,-35.024 2.176,-12.923 2.489,-26.134 0.816,-39.256 -2.074,-16.276 -5.023,-32.384 -9.093,-48.288 -0.48,-1.876 -0.124,-3.965 -0.157,-5.955 -3.355,-11.952 -6.606,-23.935 -10.094,-35.849 -3.536,-12.08 -7.306,-24.091 -10.973,-36.131 -6.595,-0.958 -13.233,-0.408 -19.844,-0.395 -3.387,0.008 -6.756,-2.301 -10.15,-0.14 2.926,18.354 6.082,36.677 8.678,55.077 1.272,9.016 3.087,18.002 3.137,27.172 1.068,5.331 2.543,10.618 3.125,16.003 1.579,14.583 1.246,29.246 1.075,43.885 -0.059,4.967 -0.777,9.901 -2.179,14.726 -2.637,9.074 -5.13,18.191 -7.683,27.29 0.261,0.413 0.73,0.815 0.753,1.241 0.844,15.654 -0.814,31.08 -5.346,46.051 C 58.15,30.296 56.477,35.175 52.34,39.785 51.508,26.884 52.286,15.062 53.069,3.239 52.024,-7.404 52.953,-18.09 52.4,-28.745 c -0.542,-2.918 -1.53,-5.736 -1.404,-8.796 0.742,-17.975 -4.195,-34.937 -9.211,-51.911 -1.916,-6.484 -5.055,-12.587 -5.985,-19.369 -10.616,-28.683 -22.068,-57.029 -34.198,-85.105 -1.624,-3.759 -4.198,-7.261 -4.01,-11.668 -7.157,0.001 -14.318,-0.139 -21.468,0.063 -3.754,0.105 -7.629,-1.015 -11.269,0.796 2.754,12.972 7.015,25.533 10.493,38.308 6.92,25.426 13.616,50.905 18.966,76.717 0.369,1.776 0.446,3.612 0.659,5.42 0.594,1.363 1.432,2.675 1.747,4.102 1.966,8.929 3.182,17.959 3.354,27.118 0.122,6.464 -0.619,13 1.668,19.295"
             style="fill:#423eaf;fill-opacity:1;fill-rule:nonzero;stroke:none"
             id="path122" /></g><g
           id="g124"
           transform="translate(164.3791,265.8454)"><path
             d="m 0,0 c -0.172,-9.159 -1.388,-18.188 -3.354,-27.118 -0.315,-1.427 -1.153,-2.738 -1.748,-4.102 -3.907,-1.239 -6.303,1.575 -8.812,3.56 -24.627,19.484 -45.729,42.113 -62.009,69.136 -10.187,16.91 -18.691,34.644 -23.858,53.606 -4.739,17.392 -8.751,35.106 -8.305,53.42 0.287,11.777 -0.682,23.588 1.872,35.273 3.107,14.213 8.655,27.312 18.162,38.332 12.805,14.846 28.655,26.315 44.083,38.208 1.411,1.088 2.949,1.494 4.688,0.99 0.886,-1.273 1.233,-2.689 1.278,-4.234 0.262,-9.028 2.447,-17.78 4.205,-26.558 2.123,-10.606 2.44,-10.543 12.952,-9.785 1.884,0.076 3.229,-0.885 3.827,-2.535 1.994,-5.496 5.403,-10.573 5.09,-16.77 -1.156,-9.684 2.269,-19.032 1.983,-28.712 -0.274,-9.262 -0.653,-18.572 0.36,-27.838 0.358,-12.603 2.143,-25.134 3.95,-37.519 1.672,-11.451 1.527,-23.082 4.193,-34.45 1.494,-6.37 1.161,-13.201 1.369,-19.834 0.322,-10.289 -0.608,-20.642 1.82,-30.813"
             style="fill:#fbb907;fill-opacity:1;fill-rule:nonzero;stroke:none"
             id="path126" /></g><g
           id="g128"
           transform="translate(729.9352,685.4255)"><path
             d="m 0,0 c -14.23,-2.042 -28.465,-4.062 -42.691,-6.134 -11.781,-1.716 -23.546,-3.533 -35.329,-5.234 -11.282,-1.629 -22.58,-3.154 -33.868,-4.745 -12.927,-1.822 -25.851,-3.663 -38.777,-5.5 -7.522,-1.07 -15.099,-1.851 -22.549,-3.29 -12.183,-2.351 -17.177,-10.774 -15.091,-22.93 2.514,-14.652 4.304,-29.428 6.323,-44.162 0.091,-0.67 -0.651,-1.455 -1.006,-2.185 -8.905,0.887 -12.596,3.519 -14.784,12.11 -5.525,21.686 -12.23,43.058 -16.999,64.95 -1.76,8.082 -4.401,15.982 -6.833,23.907 -2.637,8.595 1.331,16.085 10.163,18.468 19.846,5.356 39.718,10.621 59.569,15.965 1.893,0.51 3.957,0.78 5.327,2.471 37.051,9.931 74.103,19.86 111.151,29.796 9.104,2.442 16.279,-0.909 18.75,-9.88 C -10.823,42.48 -5.516,21.211 0,0"
             style="fill:#423eaf;fill-opacity:1;fill-rule:nonzero;stroke:none"
             id="path130" /></g><g
           id="g132"
           transform="translate(677.444,528.196)"><path
             d="m 0,0 c 4.175,3.86 -1.489,-6.229 0.848,3.658 22.71,3.375 59.361,7.741 82.118,10.784 5.762,0.77 11.624,0.787 17.434,1.151 10.009,-0.501 19.729,-2.938 29.573,-4.551 10.576,-1.732 14.255,-7.411 12.577,-17.961 -2.688,-16.908 -5.382,-33.829 -7.411,-50.823 -1.574,-13.177 -9.71,-15.794 -18.681,-14.629 -8.747,1.137 -17.476,2.439 -26.182,3.851 -12.806,2.076 -25.584,4.325 -38.38,6.463 -0.965,0.161 -1.979,0.026 -2.97,0.028 -5.909,4.237 -11.374,2.011 -13.859,-5.646 -1.988,-6.129 -2.761,-6.296 -7.137,-1.752 -2.775,2.881 -4.413,6.586 -7.295,9.438 -3.239,3.207 -6.89,4.826 -11.359,5.172 -1.668,0.129 -3.329,0.394 -4.951,0.804 -9.528,2.412 -12.141,7.85 -10.111,18.827 C -3.623,-23.501 -1.908,-11.732 0,0"
             style="fill:#ec9f01;fill-opacity:1;fill-rule:nonzero;stroke:none"
             id="path134" /></g><g
           id="g136"
           transform="translate(143.5358,486.5744)"><path
             d="m 0,0 c -10.515,-0.759 -10.832,-0.822 -12.955,9.784 -1.758,8.778 -3.942,17.53 -4.205,26.558 -0.045,1.545 -0.392,2.961 -1.278,4.234 0.193,4.974 0.365,9.933 1.254,14.868 1.356,7.525 5.36,13.088 12.554,15.366 9.591,3.037 19.361,5.593 29.359,7.075 7.344,-7.239 16.669,-10.732 26.189,-13.846 0.051,-7.123 -0.346,-14.178 1.244,-21.321 2.659,-11.945 4.432,-24.086 6.595,-36.142 1.285,-7.165 1.604,-14.662 5.367,-21.098 6.101,-10.438 15.752,-14.749 27.553,-14.844 0.38,-0.575 0.76,-1.15 1.139,-1.725 l -0.142,-0.328 0.346,0.197 c 1.408,-3.917 3.975,-6.914 7.342,-9.243 0.811,-1.429 0.971,-2.914 0.753,-4.604 -0.35,-2.721 -0.362,-5.485 -0.517,-8.231 -1.06,-1.191 -0.891,-2.613 -0.757,-4.029 -17.57,4.96 -34.373,11.806 -50.473,20.412 -3.826,2.045 -6.318,5.118 -8.381,8.871 C 35.773,-18.558 31.776,-8.544 28.394,1.672 26.975,5.96 24.947,6.69 21.113,5.62 14.099,3.661 7.04,1.864 0,0"
             style="fill:#dde2f8;fill-opacity:1;fill-rule:nonzero;stroke:none"
             id="path138" /></g><g
           id="g140"
           transform="translate(194.4572,550.6125)"><path
             d="m 0,0 c -9.523,3.115 -18.848,6.607 -26.192,13.847 4.207,8.751 3.17,18.094 3.032,27.322 -0.063,4.265 -0.972,7.283 -6.442,8.067 -8.751,1.255 -10.587,4.215 -10.485,13.253 3.764,2.166 7.548,4.675 11.909,1.49 3.241,-2.366 4.244,-0.786 4.857,2.311 1.407,7.109 1.863,14.248 -0.374,21.205 -0.985,3.062 0.077,3.898 2.672,4.281 4.236,0.625 8.328,1.692 12.116,3.832 -0.844,1.642 -2.993,-0.037 -3.612,1.739 9.33,4.296 9.33,4.296 17.761,-1.101 0.56,-0.358 1.116,-0.723 1.674,-1.085 0,0 0.294,-0.07 0.293,-0.071 1.574,-4.902 2.475,-10.067 5.612,-14.358 0.411,-3.95 1.66,-7.73 2.315,-11.653 1.972,-11.808 -2.469,-20.552 -12.12,-26.596 -3.064,-1.919 -3.919,-4.742 -5.802,-7.136 -0.751,3.719 -6.045,6.12 -9.159,4.153 -1.292,-0.817 -0.793,-1.815 0.109,-2.271 2.874,-1.452 5.436,-3.824 9.024,-3.385 0.633,-0.124 1.266,-0.247 1.899,-0.37 -2.862,-3.035 -1.935,-5.9 0.294,-8.801 C 2.47,20.653 7.017,19.121 11.463,17.389 11.822,16.266 12.3,14.803 11.296,14.124 6.04,10.57 3.835,4.643 0,0"
             style="fill:#f7d3c9;fill-opacity:1;fill-rule:nonzero;stroke:none"
             id="path142" /></g><g
           id="g144"
           transform="translate(143.1662,81.7458)"><path
             d="m 0,0 c 6.135,-5.237 12.984,-9.121 20.868,-11.066 1.748,-0.432 3.966,-0.602 3.874,-3.061 -0.089,-2.397 -1.768,-3.961 -3.97,-4.596 -1.564,-0.45 -3.286,-0.533 -4.931,-0.497 -12.472,0.273 -24.945,0.679 -37.415,0.034 -3.988,-0.206 -5.622,1.006 -4.254,5.243 1.216,3.764 1.963,7.68 2.917,11.529 0.865,1.591 2.31,2.256 4.008,2.521 C -12.605,-0.437 -6.303,-0.351 0,0"
             style="fill:#362e94;fill-opacity:1;fill-rule:nonzero;stroke:none"
             id="path146" /></g><g
           id="g148"
           transform="translate(129.1603,114.1803)"><path
             d="m 0,0 c 3.64,-1.811 7.515,-0.69 11.268,-0.796 7.151,-0.202 14.312,-0.061 21.472,-0.062 3.441,0.438 4.679,-0.136 3.23,-4.161 -2.136,-5.929 -5.368,-9.071 -11.956,-7.819 -1.227,0.234 -2.59,-0.249 -3.891,-0.401 l -18.746,0.164 c -0.324,0.072 -0.665,0.101 -0.97,0.222 -2.187,0.871 -5.822,-1.845 -6.62,2.214 C -7.169,-5.777 -4.297,-1.268 0,0"
             style="fill:#362e94;fill-opacity:1;fill-rule:nonzero;stroke:none"
             id="path150" /></g><g
           id="g152"
           transform="translate(222.2853,113.1735)"><path
             d="m 0,0 c 3.395,-2.16 6.763,0.149 10.15,0.142 6.612,-0.014 13.249,-0.564 19.844,0.394 2.859,-0.359 6.215,-0.342 3.327,-4.766 -0.32,-0.491 -0.386,-1.314 -0.248,-1.908 1.193,-5.105 -1.629,-5.92 -5.771,-5.69 -2.102,0.117 -4.229,-0.229 -6.343,-0.365 -6.167,0.018 -12.347,0.6 -18.499,-0.343 -1.845,0.907 -3.854,0.608 -5.797,0.76 -1.231,0.095 -2.176,0.379 -2.636,1.723 -1.608,4.698 1,9.138 5.973,10.053"
             style="fill:#362e94;fill-opacity:1;fill-rule:nonzero;stroke:none"
             id="path154" /></g><g
           id="g156"
           transform="translate(130.5378,101.1051)"><path
             d="m 0,0 c 6.249,-0.055 12.497,-0.109 18.747,-0.164 -1.807,-4.85 -4.598,-9.359 -5.09,-14.667 -0.279,-0.296 -0.557,-0.591 -0.836,-0.887 -1.135,-0.889 -1.682,-1.813 -0.175,-2.864 0.097,-0.26 0.093,-0.52 -0.015,-0.777 C 6.325,-19.71 0.023,-19.797 -6.274,-19.252 -4.528,-12.722 -0.029,-7.09 0,0"
             style="fill:#f7d3c9;fill-opacity:1;fill-rule:nonzero;stroke:none"
             id="path158" /></g><g
           id="g160"
           transform="translate(224.7458,100.6374)"><path
             d="M 0,0 C 6.151,0.943 12.331,0.361 18.499,0.343 17.548,-5.209 15.157,-10.508 15.575,-16.3 15.547,-17.147 15.52,-17.994 15.494,-18.843 9.513,-19.285 3.533,-19.306 -2.446,-18.788 -2.194,-12.452 0.084,-6.38 0,0"
             style="fill:#f7d3c9;fill-opacity:1;fill-rule:nonzero;stroke:none"
             id="path162" /></g><g
           id="g164"
           transform="translate(197.8625,660.3386)"><path
             d="m 0,0 c -2.958,0.981 -7.482,-2.689 -8.885,3.129 -0.295,1.223 -1.675,0.168 -2.576,0.015 -1.667,-0.282 -3.253,-2.045 -4.533,1.404 -0.742,1.998 -3.061,-1.935 -5.167,-1.47 1.434,2.145 3.888,2.942 5.725,4.632 2.187,-4.769 2.187,-4.769 12.026,0.277 C -3.73,7.119 -3.789,6.414 -4.168,6.018 -7.276,2.777 -7.084,0.95 -2.136,0.987 -1.29,0.994 -0.473,0.846 0,0"
             style="fill:#362e94;fill-opacity:1;fill-rule:nonzero;stroke:none"
             id="path166" /></g><g
           id="g168"
           transform="translate(174.2228,662.1677)"><path
             d="m 0,0 c -2.705,-2.166 -5.024,-3.34 -4.83,1.979 -2.102,-0.544 -3.367,-2.686 -5.615,-2.767 2.63,2.992 6.584,4.376 9.126,7.871 C -0.269,4.61 -4.37,1.452 0,0"
             style="fill:#362e94;fill-opacity:1;fill-rule:nonzero;stroke:none"
             id="path170" /></g><g
           id="g172"
           transform="translate(191.6452,584.4562)"><path
             d="M 0,0 C -3.588,-0.438 -6.15,1.933 -9.024,3.385 -9.926,3.841 -10.425,4.839 -9.133,5.656 -6.019,7.624 -0.725,5.223 0.026,1.503 0.019,1 0.01,0.5 0,0"
             style="fill:#f7d3c9;fill-opacity:1;fill-rule:nonzero;stroke:none"
             id="path174" /></g><g
           id="g176"
           transform="translate(142.2702,631.0637)"><path
             d="m 0,0 c 1.372,-0.296 3.517,0.397 3.004,-2.322 -0.57,-3.023 1.063,-5.551 1.834,-8.269 -2.442,1.55 -2.242,5.314 -5.604,6.367 C -1.641,-3.95 -1.602,-1.227 0,0"
             style="fill:#362e94;fill-opacity:1;fill-rule:nonzero;stroke:none"
             id="path178" /></g><g
           id="g180"
           transform="translate(201.3732,645.7736)"><path
             d="m 0,0 c -0.558,0.362 -1.114,0.727 -1.674,1.085 -8.431,5.397 -8.431,5.397 -17.761,1.101 0.619,-1.776 2.768,-0.098 3.612,-1.739 -3.788,-2.14 -7.88,-3.207 -12.116,-3.832 -2.595,-0.383 -3.657,-1.219 -2.672,-4.281 2.237,-6.958 1.781,-14.096 0.374,-21.206 -0.613,-3.096 -1.616,-4.676 -4.857,-2.31 -4.361,3.185 -8.145,0.676 -11.909,-1.49 -3.693,1.205 -5.217,4.547 -7.262,7.371 -0.771,2.718 -2.404,5.246 -1.834,8.269 0.513,2.719 -1.632,2.026 -3.004,2.322 0.172,0.478 0.344,0.955 0.513,1.43 1.148,-0.042 1.478,0.608 1.367,1.629 -0.309,0.978 -0.618,1.955 -0.925,2.929 -1.389,2.882 -0.854,5.995 -1.06,9.02 2.945,6.336 9.533,7.888 14.75,11.234 1.197,-0.136 1.818,0.695 1.169,3.59 2.835,-2.275 4.218,-1.899 4.369,0.663 3.142,-0.923 4.458,1.945 6.94,2.589 -0.238,-6.508 3.286,-3.297 6.675,-0.442 2.251,-1.616 4.983,3.382 5.8,1.181 1.28,-3.449 2.866,-1.686 4.533,-1.404 0.901,0.153 2.281,1.208 2.576,-0.015 1.403,-5.819 5.928,-2.148 8.885,-3.129 C 0.253,14.236 4.016,13.908 7.524,13.601 4.376,10.206 9.679,10.566 8.273,7.947 7.686,7.777 7.1,7.606 6.513,7.435"
             style="fill:#362e94;fill-opacity:1;fill-rule:nonzero;stroke:none"
             id="path182" /></g><g
           id="g184"
           transform="translate(205.8429,631.3444)"><path
             d="M 0,0 C -2.335,4.114 -3.005,9.067 -4.176,13.768 0.43,10.797 -0.682,4.947 0,0"
             style="fill:#f7d3c9;fill-opacity:1;fill-rule:nonzero;stroke:none"
             id="path186" /></g><g
           id="g188"
           transform="translate(207.8864,653.2082)"><path
             d="M 0,0 C 0.586,0.171 1.173,0.342 1.76,0.512 1.761,0.511 1.672,0.368 1.669,0.366 1.667,-0.093 1.669,-0.55 1.671,-1.006 1.965,-0.734 2.26,-0.461 2.555,-0.188 4.346,-1.593 3.364,-3.175 3.234,-5.175 1.126,-3.617 0.798,-1.667 0,0"
             style="fill:#362e94;fill-opacity:1;fill-rule:nonzero;stroke:none"
             id="path190" /></g><g
           id="g192"
           transform="translate(142.1652,646.0715)"><path
             d="M 0,0 C 0.206,-3.025 -0.329,-6.138 1.06,-9.02 -1.75,-6.298 -2.413,-3.33 0,0"
             style="fill:#1e1f21;fill-opacity:1;fill-rule:nonzero;stroke:none"
             id="path194" /></g><g
           id="g196"
           transform="translate(208.4499,656.4099)"><path
             d="M 0,0 C -2.61,1.229 -5.221,2.459 -7.827,3.688 -4.607,3.749 -1.845,2.848 0,0"
             style="fill:#362e94;fill-opacity:1;fill-rule:nonzero;stroke:none"
             id="path198" /></g><g
           id="g200"
           transform="translate(158.2448,658.1159)"><path
             d="M 0,0 C -0.199,-0.673 -0.679,-0.884 -1.329,-0.811 -1.147,-0.107 -0.927,0.525 0,0"
             style="fill:#362e94;fill-opacity:1;fill-rule:nonzero;stroke:none"
             id="path202" /></g><g
           id="g204"
           transform="translate(162.2326,660.3391)"><path
             d="M 0,0 C -0.278,-0.761 -0.807,-1.075 -1.606,-0.899 -1.487,0.148 -0.805,0.183 0,0"
             style="fill:#362e94;fill-opacity:1;fill-rule:nonzero;stroke:none"
             id="path206" /></g><g
           id="g208"
           transform="translate(144.1505,634.1223)"><path
             d="M 0,0 C 0.111,-1.021 -0.22,-1.67 -1.368,-1.629 -1.293,-0.763 -0.949,-0.127 0,0"
             style="fill:#362e94;fill-opacity:1;fill-rule:nonzero;stroke:none"
             id="path210" /></g><g
           id="g212"
           transform="translate(210.4416,653.0197)"><path
             d="M 0,0 C -0.295,-0.272 -0.59,-0.545 -0.884,-0.818 -0.886,-0.361 -0.888,0.096 -0.886,0.555 -0.588,0.371 -0.294,0.186 0,0"
             style="fill:#362e94;fill-opacity:1;fill-rule:nonzero;stroke:none"
             id="path214" /></g><g
           id="g216"
           transform="translate(243.9137,446.09)"><path
             d="m 0,0 c -3.383,2.349 -5.95,5.346 -7.357,9.258 0.001,-0.004 0.003,0.2 0.003,0.2 L -7.562,9.394 c -0.379,0.575 -0.759,1.149 -1.138,1.725 -0.968,4.011 -2.127,7.987 -2.873,12.04 -3.682,19.985 -7.364,39.971 -10.828,59.995 -2.31,13.348 -5.772,26.519 -6.4,40.136 1.895,5.406 2.095,11.261 6.035,16.136 4.654,5.757 10.295,9.379 17.324,10.935 14.402,3.189 28.855,6.148 43.264,9.307 17.839,3.913 35.496,8.559 52.939,13.957 20.14,6.233 40.221,12.664 59.871,20.345 -0.235,-1.667 0.014,-3.262 0.338,-4.922 1.896,-9.743 3.702,-19.504 5.442,-29.276 3.738,-21 7.401,-42.013 11.127,-63.015 3.292,-18.558 6.595,-37.115 9.954,-55.662 1.974,-10.896 4.069,-21.77 6.109,-32.655 -1.49,-0.058 -2.983,-0.216 -4.467,-0.158 C 160.896,8.997 142.66,7.84 124.5,6.871 113.039,6.258 101.535,4.728 89.999,4.178 87.324,4.05 85.444,2.387 83.61,0.683 82.515,2.871 80.518,2.296 78.807,2.077 66.432,0.492 54.037,-0.979 41.724,-2.958 38.556,-3.467 34.568,-2.645 32.321,-6.21 30.053,-5.309 27.849,-5.947 25.539,-6.192 18.882,-6.898 12.091,-7.858 5.994,-3.758 5.121,-3.449 4.248,-3.139 3.375,-2.83 L 3.36,-2.825 C 2.24,-1.883 1.12,-0.941 0,0"
             style="fill:#807dfb;fill-opacity:1;fill-rule:nonzero;stroke:none"
             id="path218" /></g><g
           id="g220"
           transform="translate(402.9801,643.2165)"><path
             d="m 0,0 c 18.682,7.517 37.359,15.042 56.054,22.528 1.047,0.419 2.223,0.513 3.339,0.758 -0.697,-15.485 1.19,-30.797 2.907,-46.136 1.786,-15.95 4.116,-31.818 6.802,-47.632 2.464,-14.518 5.081,-29.003 8.112,-43.425 5.382,-25.602 10.552,-51.233 20.175,-75.693 -13.431,-0.2 -26.844,-0.785 -40.285,0.452 -7.916,0.728 -15.935,0.343 -23.906,0.459 -2.494,14.668 -4.922,29.349 -7.509,44 -2.013,11.408 -4.301,22.768 -6.335,34.172 -3.629,20.363 -7.163,40.742 -10.728,61.116 C 5.744,-32.936 2.875,-16.467 0,0"
             style="fill:#807dfb;fill-opacity:1;fill-rule:nonzero;stroke:none"
             id="path222" /></g><g
           id="g224"
           transform="translate(333.3957,392.5612)"><path
             d="m 0,0 c -7.354,-2.168 -7.733,-2.779 -7.168,-9.915 0.442,-5.595 0.26,-11.137 1.565,-16.781 1.596,-6.907 -4.659,-14.905 -12.024,-16.881 -5.914,-1.587 -12.065,-2.17 -18.083,-3.168 -8.409,-1.394 -16.407,6.861 -17.253,16.517 -0.203,2.315 -0.26,4.674 -0.061,6.985 0.889,10.369 -2.303,20.395 -2.466,30.67 0.48,0.727 1.247,1.499 2,1.181 6.81,-2.872 8.11,2.002 9.618,6.688 0.506,1.57 1.024,3.156 1.747,4.633 1.558,3.178 0.771,4.769 -2.566,6.44 -4.288,2.149 -9.624,2.856 -12.377,7.574 0.067,3.286 0.133,6.575 0.2,9.863 4.591,0.492 9.228,0.722 13.763,1.529 11.876,2.112 23.797,3.76 35.842,4.475 -0.22,-0.595 -0.571,-1.175 -0.641,-1.787 -1,-8.683 -0.537,-9.223 7.947,-9.468 C -1.404,25.705 -1.651,12.854 0,0"
             style="fill:#807dfb;fill-opacity:1;fill-rule:nonzero;stroke:none"
             id="path226" /></g><g
           id="g228"
           transform="translate(276.3278,426.506)"><path
             d="m 0,0 c 2.752,-4.72 8.088,-5.427 12.377,-7.576 3.337,-1.671 4.124,-3.261 2.566,-6.44 -0.723,-1.477 -1.241,-3.063 -1.747,-4.633 -1.508,-4.685 -2.808,-9.559 -9.618,-6.687 -0.753,0.317 -1.52,-0.455 -2,-1.182 -2.992,3.933 -7.673,4.285 -11.904,5.185 -3.337,0.709 -6.258,1.728 -8.856,3.949 -2.978,2.546 -6.096,3.312 -9.06,-0.148 -0.813,1.529 -2.002,2.54 -3.745,2.903 -10.76,2.232 -21.516,4.486 -32.273,6.731 -1.882,1.46 -4.117,2.063 -6.375,2.592 -23.739,5.563 -41.703,18.026 -50.322,41.83 -0.549,1.518 -0.626,3.758 -2.921,4.239 0.313,6.196 -3.096,11.274 -5.09,16.769 -0.598,1.65 -1.943,2.612 -3.827,2.535 7.043,1.866 14.102,3.662 21.116,5.621 3.834,1.07 5.862,0.34 7.281,-3.947 3.382,-10.217 7.379,-20.23 12.593,-29.719 2.063,-3.752 4.555,-6.826 8.381,-8.871 16.1,-8.606 32.903,-15.451 50.473,-20.411 5.645,-2.173 11.135,-5.239 16.982,-6.257 C -10.622,-4.448 -4.373,-5.352 0,0"
             style="fill:#f7d3c9;fill-opacity:1;fill-rule:nonzero;stroke:none"
             id="path230" /></g><g
           id="g232"
           transform="translate(500.3688,453.6164)"><path
             d="m 0,0 c -9.623,24.46 -14.793,50.091 -20.175,75.693 -3.031,14.422 -5.647,28.908 -8.112,43.425 -2.686,15.814 -5.016,31.682 -6.802,47.632 -1.717,15.339 -3.603,30.651 -2.907,46.136 4.208,0.746 4.857,-2.652 5.853,-5.29 5.34,-14.143 9.438,-28.636 12.424,-43.47 2.778,-13.799 6.182,-27.473 8.887,-41.285 2.035,-10.39 3.569,-20.879 5.082,-31.372 1.553,-10.77 3.775,-21.485 5.163,-32.3 C 0.949,47.191 3.354,35.291 2.977,23.109 2.812,17.8 4.669,12.573 3.897,7.231 3.488,4.396 3.841,1.034 0,0"
             style="fill:#423eaf;fill-opacity:1;fill-rule:nonzero;stroke:none"
             id="path234" /></g><g
           id="g236"
           transform="translate(215.1129,569.3801)"><path
             d="m 0,0 c 0.628,-13.617 4.089,-26.788 6.399,-40.136 3.465,-20.024 7.146,-40.01 10.829,-59.995 0.746,-4.053 1.904,-8.029 2.873,-12.04 -11.802,0.094 -21.453,4.405 -27.555,14.843 -3.762,6.436 -4.081,13.933 -5.366,21.098 -2.163,12.056 -3.936,24.198 -6.595,36.143 -1.59,7.142 -1.193,14.197 -1.244,21.32 3.838,4.642 6.043,10.57 11.299,14.123 1.005,0.68 0.526,2.143 0.168,3.265 C -6.133,-0.891 -2.893,-1.604 0,0"
             style="fill:#423eaf;fill-opacity:1;fill-rule:nonzero;stroke:none"
             id="path238" /></g><g
           id="g240"
           transform="translate(402.9801,643.2165)"><path
             d="m 0,0 c 2.875,-16.467 5.744,-32.936 8.626,-49.401 3.565,-20.374 7.099,-40.753 10.728,-61.116 2.034,-11.404 4.322,-22.764 6.335,-34.172 2.587,-14.651 5.015,-29.332 7.509,-44 -2.89,0.001 -5.779,0.002 -8.666,0.003 -2.037,10.884 -4.131,21.758 -6.105,32.655 -3.36,18.546 -6.663,37.103 -9.955,55.662 -3.725,21.002 -7.388,42.015 -11.127,63.015 -1.74,9.771 -3.545,19.533 -5.442,29.275 -0.323,1.661 -0.572,3.255 -0.338,4.922 C -5.621,-2.104 -2.811,-1.052 0,0"
             style="fill:#423eaf;fill-opacity:1;fill-rule:nonzero;stroke:none"
             id="path242" /></g><g
           id="g244"
           transform="translate(326.1325,442.3712)"><path
             d="m 0,0 c -12.044,-0.715 -23.966,-2.363 -35.842,-4.475 -4.534,-0.807 -9.172,-1.037 -13.762,-1.53 -0.098,1.171 -0.196,2.342 -0.294,3.513 2.248,3.566 6.235,2.744 9.403,3.253 12.313,1.979 24.708,3.45 37.083,5.034 1.711,0.22 3.708,0.794 4.803,-1.394 C 0.927,2.934 0.463,1.467 0,0"
             style="fill:#423eaf;fill-opacity:1;fill-rule:nonzero;stroke:none"
             id="path246" /></g><g
           id="g248"
           transform="translate(333.3957,392.5612)"><path
             d="M 0,0 C -1.651,12.854 -1.404,25.705 0.043,38.555 3.483,38.672 4.326,35.99 4.462,33.606 5.02,23.861 5.708,14.086 3.963,4.373 3.56,2.123 2.648,0.254 0,0"
             style="fill:#423eaf;fill-opacity:1;fill-rule:nonzero;stroke:none"
             id="path250" /></g><g
           id="g252"
           transform="translate(696.2907,609.4543)"><path
             d="m 0,0 c -0.999,-7.072 -2.206,-14.124 -2.896,-21.226 -0.284,-2.909 -1.382,-4.195 -4.092,-4.511 -1.652,-0.192 -3.328,-0.338 -4.931,-0.75 -3.416,-0.879 -5.064,0.36 -6.242,3.724 -3.842,10.976 -7.953,21.86 -12.144,32.709 -1.317,3.411 -0.342,4.752 3.089,5.409 7.405,1.419 7.907,1.217 10.301,-5.929 1.406,-4.199 2.868,-8.379 4.75,-13.863 2.536,6.357 2.517,11.868 3.11,17.125 0.475,4.197 2.031,5.353 6.012,6.14 5.944,1.176 8.644,-0.77 10.462,-6.32 1.451,-4.429 3.086,-8.995 6.485,-13.658 0.382,6.471 0.917,12.023 0.968,17.578 0.033,3.777 1.347,5.17 5.233,5.427 7.979,0.529 7.816,0.796 7.06,-7.2 -0.954,-10.098 -1.937,-20.21 -2.307,-30.338 -0.175,-4.808 -1.938,-6.677 -6.515,-6.477 -1.147,0.051 -2.358,-0.09 -3.455,-0.42 -2.875,-0.864 -4.12,0.356 -5.189,2.996 C 6.98,-12.868 3.91,-6.294 0.98,0.337 0.653,0.225 0.327,0.112 0,0"
             style="fill:#ced3f8;fill-opacity:1;fill-rule:nonzero;stroke:none"
             id="path254" /></g><g
           id="g256"
           transform="translate(607.7184,594.2365)"><path
             d="m 0,0 c -0.681,5.195 -1.132,10.435 -2.111,15.573 -0.83,4.363 0.051,6.459 4.991,6.669 6.696,0.285 6.759,0.605 7.733,-6.022 1.599,-10.857 3.065,-21.734 4.643,-32.595 0.309,-2.134 -0.072,-3.187 -2.519,-3.824 -6.055,-1.576 -10.98,-1.619 -15.049,4.503 -3.222,4.849 -7.83,8.778 -12.93,12.585 0.646,-5.159 1.056,-10.362 2.014,-15.462 0.764,-4.065 -0.34,-5.753 -4.596,-6.087 -7.709,-0.605 -7.499,-0.779 -8.428,7.12 -1.184,10.075 -2.659,20.117 -4.141,30.153 -0.555,3.759 0.686,4.77 4.544,5.641 5.669,1.281 9.01,-0.621 12.338,-4.689 C -9.554,8.729 -5.16,4.25 -0.956,-0.384 -0.638,-0.256 -0.318,-0.128 0,0"
             style="fill:#ced3f8;fill-opacity:1;fill-rule:nonzero;stroke:none"
             id="path258" /></g><g
           id="g260"
           transform="translate(667.2487,584.3522)"><path
             d="m 0,0 c 0.591,-2.586 -0.42,-3.93 -3.494,-4.33 -9.555,-1.244 -19.077,-2.738 -28.607,-4.178 -2.249,-0.34 -3.449,0.418 -3.758,2.758 -1.594,12.027 -3.21,24.051 -4.901,36.065 -0.468,3.326 1.038,4.3 4.115,4.655 8.745,1.009 17.507,2.03 26.154,3.629 4.121,0.762 4.818,-0.957 5.295,-4.223 0.466,-3.205 -0.007,-5.02 -3.809,-5.269 -4.633,-0.304 -9.218,-1.276 -13.842,-1.797 -2.422,-0.273 -3.495,-1.183 -3.351,-3.809 0.163,-2.981 1.92,-3.105 4.07,-2.825 4.282,0.559 8.613,0.921 12.814,1.858 3.721,0.83 4.205,-1.344 4.762,-3.969 0.627,-2.948 0.016,-4.89 -3.399,-5.241 -4.299,-0.443 -8.572,-1.145 -12.874,-1.531 -3.308,-0.296 -3.656,-2.148 -3.115,-4.838 0.498,-2.476 0.93,-4.336 4.425,-3.466 4.335,1.078 8.854,1.415 13.29,2.09 C -0.905,6.387 -0.201,5.794 0,0"
             style="fill:#ced3f8;fill-opacity:1;fill-rule:nonzero;stroke:none"
             id="path262" /></g><g
           id="g264"
           transform="translate(746.5456,591.5978)"><path
             d="m 0,0 c -6.931,-0.669 -12.19,2.004 -15.413,8.43 -1.373,2.736 -0.806,4.435 2.446,4.884 4.171,0.576 8.475,3.248 11.497,-2.782 1.276,-2.546 4.943,-2.365 7.705,-0.801 1.481,0.837 2.747,1.922 2.701,3.877 -0.05,2.066 -1.598,3.039 -3.159,3.401 -3.55,0.824 -7.186,1.279 -10.79,1.872 -7.817,1.286 -12.437,5.564 -12.745,11.81 -0.278,5.657 4.244,11.052 11.291,12.866 5.132,1.32 10.375,2.724 15.687,0.59 0.922,-0.37 1.891,-0.664 2.744,-1.158 2.849,-1.65 4.925,-3.966 5.598,-7.274 0.245,-1.195 -0.565,-2.027 -1.698,-1.935 -3.798,0.305 -7.709,-4.412 -11.456,0.339 -0.754,0.957 -2.162,1.73 -3.375,1.923 -2.516,0.402 -5.518,0.319 -6.083,-2.747 -0.574,-3.119 2.635,-2.976 4.543,-3.337 C 3.56,29.187 7.744,29.414 11.793,28.1 17.935,26.108 21.37,22.765 21.759,17.094 22.167,11.122 19.908,6.271 14.535,3.348 10.089,0.93 5.267,-0.337 0,0"
             style="fill:#ced3f8;fill-opacity:1;fill-rule:nonzero;stroke:none"
             id="path266" /></g><g
           id="g268"
           transform="translate(219.3415,81.2692)"><path
             d="m 0,0 c 0.986,0.193 1.972,0.387 2.958,0.58 5.979,-0.518 11.959,-0.497 17.94,-0.055 2.891,-3.387 7.213,-4.121 11.01,-5.712 7.554,-3.167 15.813,-3.634 23.687,-5.62 1.265,-0.318 2.769,-0.214 3.092,-1.94 0.309,-1.65 -0.54,-2.856 -1.645,-3.951 -1.809,-1.791 -4.102,-2.104 -6.463,-2.068 -16.949,0.263 -33.897,0.704 -50.846,0.047 -3.604,-0.139 -4.868,1.25 -3.71,4.865 C -2.513,-9.28 -1.313,-4.622 0,0"
             style="fill:#362e94;fill-opacity:1;fill-rule:nonzero;stroke:none"
             id="path270" /></g><g
           id="g272"
           transform="translate(143.1833,82.5231)"><path
             d="M 0,0 C -1.507,1.051 -0.959,1.975 0.175,2.864 0.117,1.91 0.059,0.955 0,0"
             style="fill:#ced3f8;fill-opacity:1;fill-rule:nonzero;stroke:none"
             id="path274" /></g><g
           id="g276"
           transform="translate(234.1007,195.4303)"><path
             d="m 0,0 c -6.992,-0.734 -12.493,4.139 -18.725,6.239 -4.225,1.425 -8.155,3.937 -12.188,6.032 -1.525,0.793 -2.833,1.91 -3.083,3.967 0.93,7.502 4.069,14.256 5.985,21.431 5.016,18.784 9.953,37.554 9.211,57.444 -0.126,3.387 0.862,6.504 1.403,9.726 -0.614,9.383 0.256,13.833 0.618,20.745 0.142,2.729 -0.085,5.771 3.549,5.985 4.266,-5.408 2.423,-14.211 5.826,-20.045 C -4.787,98.121 -0.59,91.278 2.021,82.568 3.423,77.229 4.141,71.77 4.2,66.272 4.372,50.073 4.705,33.847 3.125,17.709 2.543,11.751 1.068,5.899 0,0"
             style="fill:#fbb907;fill-opacity:1;fill-rule:nonzero;stroke:none"
             id="path278" /></g><g
           id="g280"
           transform="translate(152.4499,467.2687)"><path
             d="m 0,0 c 2.295,-0.481 2.372,-2.721 2.921,-4.239 8.619,-23.803 26.583,-36.267 50.322,-41.83 2.257,-0.529 4.493,-1.132 6.375,-2.592 C 42.44,-50.783 25.26,-52.879 8.092,-55.065 6.144,-55.312 4.26,-56.059 2.344,-56.562 1.331,-47.285 1.709,-37.974 1.983,-28.712 2.269,-19.033 -1.156,-9.685 0,0"
             style="fill:#dde2f8;fill-opacity:1;fill-rule:nonzero;stroke:none"
             id="path282" /></g><g
           id="g284"
           transform="translate(228.4386,297.3278)"><path
             d="m 0,0 c -3.403,5.271 -3.302,12.104 -7.569,16.992 -1.166,2.612 -2.33,5.224 -3.495,7.835 -0.784,11.822 -1.561,23.645 -0.729,36.546 4.136,-4.61 5.81,-9.489 7.2,-14.081 C -0.061,32.321 3.597,11.618 2.752,-4.036 2.729,-4.462 0.261,0.413 0,0"
             style="fill:#362e94;fill-opacity:1;fill-rule:nonzero;stroke:none"
             id="path286" /></g><g
           id="g288"
           transform="translate(275.9987,439.9679)"><path
             d="m 0,0 c 0.214,-0.325 0.371,-0.565 0.584,-0.891 -0.085,-4.19 -0.17,-8.382 -0.255,-12.572 -4.373,-5.351 -10.621,-4.447 -15.969,-3.516 -5.847,1.019 -11.337,4.084 -16.982,6.257 -0.134,1.415 -0.303,2.837 0.757,4.028 2.203,1.34 0.993,3.457 1.141,5.237 0.117,1.409 -0.303,2.994 0.668,4.008 0.566,0.591 -0.819,2.394 -0.045,2.129 0.002,-10e-4 0.351,-0.348 1.391,-1.388 -0.849,0.849 1.558,-1.15 2.619,-0.928 6.097,-4.1 12.888,-3.14 19.545,-2.434 C -4.316,0.167 -2.185,0.77 0,0"
             style="fill:#fbb907;fill-opacity:1;fill-rule:nonzero;stroke:none"
             id="path290" /></g><g
           id="g292"
           transform="translate(247.2736,443.2653)"><path
             d="m 0,0 c -2.609,-0.777 -1.846,-2.916 -1.999,-4.754 -0.147,-1.78 1.062,-3.898 -1.141,-5.237 0.155,2.746 0.167,5.51 0.517,8.231 0.218,1.69 0.059,3.176 -0.752,4.604 C -2.24,1.883 -1.12,0.941 0,0"
             style="fill:#f7d3c9;fill-opacity:1;fill-rule:nonzero;stroke:none"
             id="path294" /></g><g
           id="g296"
           transform="translate(236.3517,455.4836)"><path
             d="m 0,0 0.208,0.065 c 0,0 -0.002,-0.204 -0.003,-0.2 -0.001,0.004 -0.347,-0.194 -0.347,-0.194 z"
             style="fill:#f7d3c9;fill-opacity:1;fill-rule:nonzero;stroke:none"
             id="path298" /></g><g
           id="g300"
           transform="translate(249.9074,442.3317)"><path
             d="M 0,0 C -1.061,-0.222 -2.001,-0.1 -2.619,0.929 Z"
             style="fill:#f7d3c9;fill-opacity:1;fill-rule:nonzero;stroke:none"
             id="path302" /></g></g></g></g></svg>
